<svg width="150" height="150" viewBox="0 0 150 150" fill="none" xmlns="http://www.w3.org/2000/svg">
<rect width="150" height="150" fill="black"/>
<path fill-rule="evenodd" clip-rule="evenodd" d="M0 75V150H75H150V75V0H75H0V75ZM54 65C54 73.895 54.029 74 56.461 74C57.815 74 59.84 73.015 60.961 71.811L63 69.623V74.946V80.27L60.927 77.635C59.705 76.081 57.859 75 56.427 75C54.028 75 54 75.109 54 84.5V94H49H44V75V56H49H54V65ZM68.996 60.75L68.993 65.5L67.158 62.5C64.972 58.924 63.2 57.387 60.5 56.724C59.4 56.453 60.862 56.18 63.75 56.116L69 56L68.996 60.75ZM81.214 57.562C79.988 58.422 78.107 60.784 77.036 62.812L75.088 66.5L75.044 61.25L75 56H79.223C83.336 56 83.387 56.04 81.214 57.562ZM96 75V94H91H86V75V56H91H96V75ZM106.967 61.75L106.935 67.5L104.891 62.869C103.767 60.322 101.87 57.765 100.674 57.187C98.779 56.27 99.045 56.127 102.75 56.068L107 56L106.967 61.75ZM70 89.5V94L64.25 93.961C58.573 93.922 58.539 93.905 61.572 92.584C63.262 91.848 65.737 89.866 67.072 88.178C68.407 86.491 69.612 85.086 69.75 85.055C69.888 85.025 70 87.025 70 89.5Z" fill="white"/>
</svg>
