<svg width="322" height="44" viewBox="0 0 322 44" fill="none" xmlns="http://www.w3.org/2000/svg">
<path d="M2.11364 23V5.54545H12.6477V7.42045H4.22727V13.3182H12.1023V15.1932H4.22727V21.125H12.7841V23H2.11364ZM17.1733 5.54545L22.3551 20.2386H22.5597L27.7415 5.54545H29.9574L23.5483 23H21.3665L14.9574 5.54545H17.1733ZM32.6761 23V5.54545H43.2102V7.42045H34.7898V13.3182H42.6648V15.1932H34.7898V21.125H43.3466V23H32.6761ZM60.8608 5.54545V23H58.8153L49.304 9.29545H49.1335V23H47.0199V5.54545H49.0653L58.6108 19.2841H58.7812V5.54545H60.8608ZM64.1357 7.42045V5.54545H77.2266V7.42045H71.7379V23H69.6243V7.42045H64.1357ZM90.0341 9.90909C89.9318 9.04545 89.517 8.375 88.7898 7.89773C88.0625 7.42045 87.1705 7.18182 86.1136 7.18182C85.3409 7.18182 84.6648 7.30682 84.0852 7.55682C83.5114 7.80682 83.0625 8.15057 82.7386 8.58807C82.4205 9.02557 82.2614 9.52273 82.2614 10.0795C82.2614 10.5455 82.3722 10.946 82.5938 11.2812C82.821 11.6108 83.1108 11.8864 83.4631 12.108C83.8153 12.3239 84.1847 12.5028 84.571 12.6449C84.9574 12.7812 85.3125 12.892 85.6364 12.9773L87.4091 13.4545C87.8636 13.5739 88.3693 13.7386 88.9261 13.9489C89.4886 14.1591 90.0256 14.446 90.5369 14.8097C91.054 15.1676 91.4801 15.6278 91.8153 16.1903C92.1506 16.7528 92.3182 17.4432 92.3182 18.2614C92.3182 19.2045 92.071 20.0568 91.5767 20.8182C91.0881 21.5795 90.3722 22.1847 89.429 22.6335C88.4915 23.0824 87.3523 23.3068 86.0114 23.3068C84.7614 23.3068 83.679 23.1051 82.7642 22.7017C81.8551 22.2983 81.1392 21.7358 80.6165 21.0142C80.0994 20.2926 79.8068 19.4545 79.7386 18.5H81.9205C81.9773 19.1591 82.1989 19.7045 82.5852 20.1364C82.9773 20.5625 83.4716 20.8807 84.0682 21.0909C84.6705 21.2955 85.3182 21.3977 86.0114 21.3977C86.8182 21.3977 87.5426 21.267 88.1847 21.0057C88.8267 20.7386 89.3352 20.3693 89.7102 19.8977C90.0852 19.4205 90.2727 18.8636 90.2727 18.2273C90.2727 17.6477 90.1108 17.1761 89.7869 16.8125C89.4631 16.4489 89.0369 16.1534 88.5085 15.9261C87.9801 15.6989 87.4091 15.5 86.7955 15.3295L84.6477 14.7159C83.2841 14.3239 82.2045 13.7642 81.4091 13.0369C80.6136 12.3097 80.2159 11.358 80.2159 10.1818C80.2159 9.20454 80.4801 8.35227 81.0085 7.625C81.5426 6.89205 82.2585 6.32386 83.1562 5.92045C84.0597 5.51136 85.0682 5.30682 86.1818 5.30682C87.3068 5.30682 88.3068 5.50852 89.1818 5.91193C90.0568 6.30966 90.75 6.85511 91.2614 7.54829C91.7784 8.24148 92.0511 9.02841 92.0795 9.90909H90.0341ZM101.589 7.42045V5.54545H114.68V7.42045H109.191V23H107.077V7.42045H101.589ZM116.619 23H114.403L120.812 5.54545H122.994L129.403 23H127.187L121.971 8.30682H121.835L116.619 23ZM117.437 16.1818H126.369V18.0568H117.437V16.1818ZM134.235 5.54545V23H132.121V5.54545H134.235ZM138.473 23V5.54545H140.587V21.125H148.7V23H138.473ZM155.143 23L150.371 5.54545H152.518L156.166 19.7614H156.337L160.053 5.54545H162.439L166.155 19.7614H166.325L169.973 5.54545H172.121L167.348 23H165.166L161.314 9.09091H161.178L157.325 23H155.143ZM176.868 5.54545V23H174.754V5.54545H176.868ZM194.947 5.54545V23H192.901L183.39 9.29545H183.219V23H181.106V5.54545H183.151L192.697 19.2841H192.867V5.54545H194.947ZM204.562 23H199.176V5.54545H204.801C206.494 5.54545 207.943 5.89489 209.148 6.59375C210.352 7.28693 211.276 8.28409 211.918 9.58523C212.56 10.8807 212.881 12.4318 212.881 14.2386C212.881 16.0568 212.557 17.6222 211.909 18.9347C211.261 20.2415 210.318 21.2472 209.08 21.9517C207.841 22.6506 206.335 23 204.562 23ZM201.29 21.125H204.426C205.869 21.125 207.065 20.8466 208.014 20.2898C208.963 19.733 209.67 18.9403 210.136 17.9119C210.602 16.8835 210.835 15.6591 210.835 14.2386C210.835 12.8295 210.605 11.6165 210.145 10.5994C209.685 9.5767 208.997 8.79261 208.082 8.24716C207.168 7.69602 206.028 7.42045 204.665 7.42045H201.29V21.125Z" fill="#333333"/>
</svg>
